<svg xmlns="http://www.w3.org/2000/svg" width="760" height="474" font-family="ui-sans-serif,system-ui,sans-serif">
<text x="235" y="24" font-size="15" font-weight="600" fill="#6e7781">Agentic web search — fresh-question correctness (frozen config, dataset v2)</text>
<text x="235" y="42" font-size="11" fill="#8b949e">53 retrieval-required questions · whiskers = Wilson 90% CI · no-tool floor ≈ 0.00–0.02</text>
<line x1="235" y1="56" x2="235" y2="436" stroke="#8b949e" stroke-opacity="0.25" stroke-width="1"/>
<text x="235" y="452" font-size="10" fill="#8b949e" text-anchor="middle">0.00</text>
<line x1="351" y1="56" x2="351" y2="436" stroke="#8b949e" stroke-opacity="0.25" stroke-width="1"/>
<text x="351" y="452" font-size="10" fill="#8b949e" text-anchor="middle">0.25</text>
<line x1="468" y1="56" x2="468" y2="436" stroke="#8b949e" stroke-opacity="0.25" stroke-width="1"/>
<text x="468" y="452" font-size="10" fill="#8b949e" text-anchor="middle">0.50</text>
<line x1="584" y1="56" x2="584" y2="436" stroke="#8b949e" stroke-opacity="0.25" stroke-width="1"/>
<text x="584" y="452" font-size="10" fill="#8b949e" text-anchor="middle">0.75</text>
<line x1="700" y1="56" x2="700" y2="436" stroke="#8b949e" stroke-opacity="0.25" stroke-width="1"/>
<text x="700" y="452" font-size="10" fill="#8b949e" text-anchor="middle">1.00</text>
<text x="227" y="77" font-size="11.5" fill="#6e7781" text-anchor="end">Qwen3.5-4B</text>
<rect x="235" y="66" width="412.4" height="15" rx="2.5" fill="#3b82f6" fill-opacity="0.9"/>
<line x1="605.0" y1="73.5" x2="672.2" y2="73.5" stroke="#6e7781" stroke-width="1.4"/>
<line x1="605.0" y1="69" x2="605.0" y2="78" stroke="#6e7781" stroke-width="1.4"/>
<line x1="672.2" y1="69" x2="672.2" y2="78" stroke="#6e7781" stroke-width="1.4"/>
<text x="695.4" y="77" font-size="10.5" fill="#6e7781">0.887</text>
<text x="227" y="103" font-size="11.5" fill="#6e7781" text-anchor="end">Ministral-3-3B</text>
<rect x="235" y="92" width="377.3" height="15" rx="2.5" fill="#3b82f6" fill-opacity="0.9"/>
<line x1="564.5" y1="99.5" x2="645.9" y2="99.5" stroke="#6e7781" stroke-width="1.4"/>
<line x1="564.5" y1="95" x2="564.5" y2="104" stroke="#6e7781" stroke-width="1.4"/>
<line x1="645.9" y1="95" x2="645.9" y2="104" stroke="#6e7781" stroke-width="1.4"/>
<text x="660.3" y="103" font-size="10.5" fill="#6e7781">0.811</text>
<text x="227" y="129" font-size="11.5" fill="#6e7781" text-anchor="end">Qwen3.5-2B</text>
<rect x="235" y="118" width="333.4" height="15" rx="2.5" fill="#3b82f6" fill-opacity="0.9"/>
<line x1="517.1" y1="125.5" x2="609.9" y2="125.5" stroke="#6e7781" stroke-width="1.4"/>
<line x1="517.1" y1="121" x2="517.1" y2="130" stroke="#6e7781" stroke-width="1.4"/>
<line x1="609.9" y1="121" x2="609.9" y2="130" stroke="#6e7781" stroke-width="1.4"/>
<text x="616.4" y="129" font-size="10.5" fill="#6e7781">0.717</text>
<text x="227" y="155" font-size="11.5" fill="#6e7781" text-anchor="end">Gemma-4-E2B</text>
<rect x="235" y="144" width="315.8" height="15" rx="2.5" fill="#3b82f6" fill-opacity="0.9"/>
<line x1="498.8" y1="151.5" x2="594.8" y2="151.5" stroke="#6e7781" stroke-width="1.4"/>
<line x1="498.8" y1="147" x2="498.8" y2="156" stroke="#6e7781" stroke-width="1.4"/>
<line x1="594.8" y1="147" x2="594.8" y2="156" stroke="#6e7781" stroke-width="1.4"/>
<text x="598.8" y="155" font-size="10.5" fill="#6e7781">0.679</text>
<text x="227" y="181" font-size="11.5" fill="#6e7781" text-anchor="end">LFM2.5-1.2B</text>
<rect x="235" y="170" width="307.1" height="15" rx="2.5" fill="#3b82f6" fill-opacity="0.9"/>
<line x1="489.8" y1="177.5" x2="587.1" y2="177.5" stroke="#6e7781" stroke-width="1.4"/>
<line x1="489.8" y1="173" x2="489.8" y2="182" stroke="#6e7781" stroke-width="1.4"/>
<line x1="587.1" y1="173" x2="587.1" y2="182" stroke="#6e7781" stroke-width="1.4"/>
<text x="590.1" y="181" font-size="10.5" fill="#6e7781">0.660</text>
<text x="227" y="207" font-size="11.5" fill="#6e7781" text-anchor="end">Qwen3-1.7B</text>
<rect x="235" y="196" width="272.0" height="15" rx="2.5" fill="#3b82f6" fill-opacity="0.9"/>
<line x1="454.5" y1="203.5" x2="555.6" y2="203.5" stroke="#6e7781" stroke-width="1.4"/>
<line x1="454.5" y1="199" x2="454.5" y2="208" stroke="#6e7781" stroke-width="1.4"/>
<line x1="555.6" y1="199" x2="555.6" y2="208" stroke="#6e7781" stroke-width="1.4"/>
<text x="555.0" y="207" font-size="10.5" fill="#6e7781">0.585</text>
<text x="227" y="233" font-size="11.5" fill="#6e7781" text-anchor="end">Qwen3-0.6B</text>
<rect x="235" y="222" width="245.7" height="15" rx="2.5" fill="#3b82f6" fill-opacity="0.9"/>
<line x1="428.9" y1="229.5" x2="531.2" y2="229.5" stroke="#6e7781" stroke-width="1.4"/>
<line x1="428.9" y1="225" x2="428.9" y2="234" stroke="#6e7781" stroke-width="1.4"/>
<line x1="531.2" y1="225" x2="531.2" y2="234" stroke="#6e7781" stroke-width="1.4"/>
<text x="528.7" y="233" font-size="10.5" fill="#6e7781">0.528</text>
<text x="227" y="259" font-size="11.5" fill="#6e7781" text-anchor="end">Claude Sonnet 5 (frontier anchor)</text>
<rect x="235" y="248" width="456.2" height="15" rx="2.5" fill="#9ca3af" fill-opacity="0.55"/>
<line x1="662.7" y1="255.5" x2="698.0" y2="255.5" stroke="#6e7781" stroke-width="1.4"/>
<line x1="662.7" y1="251" x2="662.7" y2="260" stroke="#6e7781" stroke-width="1.4"/>
<line x1="698.0" y1="251" x2="698.0" y2="260" stroke="#6e7781" stroke-width="1.4"/>
<text x="739.2" y="259" font-size="10.5" fill="#6e7781">0.981</text>
<text x="227" y="285" font-size="11.5" fill="#6e7781" text-anchor="end">GPT-5.6-sol (frontier anchor)</text>
<rect x="235" y="274" width="456.2" height="15" rx="2.5" fill="#9ca3af" fill-opacity="0.55"/>
<line x1="662.7" y1="281.5" x2="698.0" y2="281.5" stroke="#6e7781" stroke-width="1.4"/>
<line x1="662.7" y1="277" x2="662.7" y2="286" stroke="#6e7781" stroke-width="1.4"/>
<line x1="698.0" y1="277" x2="698.0" y2="286" stroke="#6e7781" stroke-width="1.4"/>
<text x="739.2" y="285" font-size="10.5" fill="#6e7781">0.981</text>
<text x="227" y="311" font-size="11.5" fill="#6e7781" text-anchor="end">Hermes-3-3B</text>
<rect x="235" y="300" width="35.1" height="15" rx="2.5" fill="#ef4444" fill-opacity="0.9"/>
<text x="278.1" y="311" font-size="10.5" fill="#6e7781">0.08 — never calls tools</text>
<text x="227" y="337" font-size="11.5" fill="#6e7781" text-anchor="end">SmolLM3-3B</text>
<rect x="235" y="326" width="17.5" height="15" rx="2.5" fill="#ef4444" fill-opacity="0.9"/>
<text x="260.5" y="337" font-size="10.5" fill="#6e7781">0.04 — never calls tools</text>
<text x="227" y="363" font-size="11.5" fill="#6e7781" text-anchor="end">Gemma-3-1B</text>
<rect x="235" y="352" width="8.8" height="15" rx="2.5" fill="#ef4444" fill-opacity="0.9"/>
<text x="251.8" y="363" font-size="10.5" fill="#6e7781">0.02 — never calls tools</text>
<text x="227" y="389" font-size="11.5" fill="#6e7781" text-anchor="end">Gemma-3-4B</text>
<rect x="235" y="378" width="8.8" height="15" rx="2.5" fill="#ef4444" fill-opacity="0.9"/>
<text x="251.8" y="389" font-size="10.5" fill="#6e7781">0.02 — never calls tools</text>
<text x="227" y="415" font-size="11.5" fill="#6e7781" text-anchor="end">Phi-4-mini</text>
<rect x="235" y="404" width="1.5" height="15" rx="2.5" fill="#ef4444" fill-opacity="0.9"/>
<text x="244.5" y="415" font-size="10.5" fill="#6e7781">0.00 — never calls tools</text>
</svg>