<svg xmlns="http://www.w3.org/2000/svg" width="760" height="500" font-family="ui-sans-serif,system-ui,sans-serif">
<text x="235" y="24" font-size="15" font-weight="600" fill="#6e7781">Agentic web search — fresh-question correctness (frozen config, dataset v1)</text>
<text x="235" y="42" font-size="11" fill="#8b949e">44 retrieval-required questions · whiskers = Wilson 90% CI · no-tool floor ≈ 0.00–0.02</text>
<line x1="235" y1="56" x2="235" y2="462" stroke="#8b949e" stroke-opacity="0.25" stroke-width="1"/>
<text x="235" y="478" font-size="10" fill="#8b949e" text-anchor="middle">0.00</text>
<line x1="351" y1="56" x2="351" y2="462" stroke="#8b949e" stroke-opacity="0.25" stroke-width="1"/>
<text x="351" y="478" font-size="10" fill="#8b949e" text-anchor="middle">0.25</text>
<line x1="468" y1="56" x2="468" y2="462" stroke="#8b949e" stroke-opacity="0.25" stroke-width="1"/>
<text x="468" y="478" font-size="10" fill="#8b949e" text-anchor="middle">0.50</text>
<line x1="584" y1="56" x2="584" y2="462" stroke="#8b949e" stroke-opacity="0.25" stroke-width="1"/>
<text x="584" y="478" font-size="10" fill="#8b949e" text-anchor="middle">0.75</text>
<line x1="700" y1="56" x2="700" y2="462" stroke="#8b949e" stroke-opacity="0.25" stroke-width="1"/>
<text x="700" y="478" font-size="10" fill="#8b949e" text-anchor="middle">1.00</text>
<text x="227" y="77" font-size="11.5" fill="#6e7781" text-anchor="end">Qwen3.5-2B (huihui abliterated)</text>
<rect x="235" y="66" width="454.4" height="15" rx="2.5" fill="#3b82f6" fill-opacity="0.9"/>
<line x1="655.5" y1="73.5" x2="697.6" y2="73.5" stroke="#6e7781" stroke-width="1.4"/>
<line x1="655.5" y1="69" x2="655.5" y2="78" stroke="#6e7781" stroke-width="1.4"/>
<line x1="697.6" y1="69" x2="697.6" y2="78" stroke="#6e7781" stroke-width="1.4"/>
<text x="737.4" y="77" font-size="10.5" fill="#6e7781">0.977</text>
<text x="227" y="103" font-size="11.5" fill="#6e7781" text-anchor="end">Qwen3.5-4B</text>
<rect x="235" y="92" width="454.4" height="15" rx="2.5" fill="#3b82f6" fill-opacity="0.9"/>
<line x1="655.5" y1="99.5" x2="697.6" y2="99.5" stroke="#6e7781" stroke-width="1.4"/>
<line x1="655.5" y1="95" x2="655.5" y2="104" stroke="#6e7781" stroke-width="1.4"/>
<line x1="697.6" y1="95" x2="697.6" y2="104" stroke="#6e7781" stroke-width="1.4"/>
<text x="737.4" y="103" font-size="10.5" fill="#6e7781">0.977</text>
<text x="227" y="129" font-size="11.5" fill="#6e7781" text-anchor="end">Ministral-3-3B</text>
<rect x="235" y="118" width="454.4" height="15" rx="2.5" fill="#3b82f6" fill-opacity="0.9"/>
<line x1="655.5" y1="125.5" x2="697.6" y2="125.5" stroke="#6e7781" stroke-width="1.4"/>
<line x1="655.5" y1="121" x2="655.5" y2="130" stroke="#6e7781" stroke-width="1.4"/>
<line x1="697.6" y1="121" x2="697.6" y2="130" stroke="#6e7781" stroke-width="1.4"/>
<text x="737.4" y="129" font-size="10.5" fill="#6e7781">0.977</text>
<text x="227" y="155" font-size="11.5" fill="#6e7781" text-anchor="end">Gemma-4-E2B</text>
<rect x="235" y="144" width="433.3" height="15" rx="2.5" fill="#3b82f6" fill-opacity="0.9"/>
<line x1="626.2" y1="151.5" x2="687.2" y2="151.5" stroke="#6e7781" stroke-width="1.4"/>
<line x1="626.2" y1="147" x2="626.2" y2="156" stroke="#6e7781" stroke-width="1.4"/>
<line x1="687.2" y1="147" x2="687.2" y2="156" stroke="#6e7781" stroke-width="1.4"/>
<text x="716.3" y="155" font-size="10.5" fill="#6e7781">0.932</text>
<text x="227" y="181" font-size="11.5" fill="#6e7781" text-anchor="end">LFM2.5-1.2B</text>
<rect x="235" y="170" width="422.7" height="15" rx="2.5" fill="#3b82f6" fill-opacity="0.9"/>
<line x1="612.7" y1="177.5" x2="680.7" y2="177.5" stroke="#6e7781" stroke-width="1.4"/>
<line x1="612.7" y1="173" x2="612.7" y2="182" stroke="#6e7781" stroke-width="1.4"/>
<line x1="680.7" y1="173" x2="680.7" y2="182" stroke="#6e7781" stroke-width="1.4"/>
<text x="705.7" y="181" font-size="10.5" fill="#6e7781">0.909</text>
<text x="227" y="207" font-size="11.5" fill="#6e7781" text-anchor="end">Qwen3-0.6B</text>
<rect x="235" y="196" width="412.2" height="15" rx="2.5" fill="#3b82f6" fill-opacity="0.9"/>
<line x1="599.7" y1="203.5" x2="673.8" y2="203.5" stroke="#6e7781" stroke-width="1.4"/>
<line x1="599.7" y1="199" x2="599.7" y2="208" stroke="#6e7781" stroke-width="1.4"/>
<line x1="673.8" y1="199" x2="673.8" y2="208" stroke="#6e7781" stroke-width="1.4"/>
<text x="695.2" y="207" font-size="10.5" fill="#6e7781">0.886</text>
<text x="227" y="233" font-size="11.5" fill="#6e7781" text-anchor="end">Qwen3-1.7B</text>
<rect x="235" y="222" width="391.0" height="15" rx="2.5" fill="#3b82f6" fill-opacity="0.9"/>
<line x1="574.9" y1="229.5" x2="658.8" y2="229.5" stroke="#6e7781" stroke-width="1.4"/>
<line x1="574.9" y1="225" x2="574.9" y2="234" stroke="#6e7781" stroke-width="1.4"/>
<line x1="658.8" y1="225" x2="658.8" y2="234" stroke="#6e7781" stroke-width="1.4"/>
<text x="674.0" y="233" font-size="10.5" fill="#6e7781">0.841</text>
<text x="227" y="259" font-size="11.5" fill="#6e7781" text-anchor="end">Qwen3-4B (mlabonne)</text>
<rect x="235" y="248" width="391.0" height="15" rx="2.5" fill="#3b82f6" fill-opacity="0.9"/>
<line x1="574.9" y1="255.5" x2="658.8" y2="255.5" stroke="#6e7781" stroke-width="1.4"/>
<line x1="574.9" y1="251" x2="574.9" y2="260" stroke="#6e7781" stroke-width="1.4"/>
<line x1="658.8" y1="251" x2="658.8" y2="260" stroke="#6e7781" stroke-width="1.4"/>
<text x="674.0" y="259" font-size="10.5" fill="#6e7781">0.841</text>
<text x="227" y="285" font-size="11.5" fill="#6e7781" text-anchor="end">Gemma-4-31B (ceiling ref)</text>
<rect x="235" y="274" width="454.4" height="15" rx="2.5" fill="#9ca3af" fill-opacity="0.55"/>
<line x1="655.5" y1="281.5" x2="697.6" y2="281.5" stroke="#6e7781" stroke-width="1.4"/>
<line x1="655.5" y1="277" x2="655.5" y2="286" stroke="#6e7781" stroke-width="1.4"/>
<line x1="697.6" y1="277" x2="697.6" y2="286" stroke="#6e7781" stroke-width="1.4"/>
<text x="737.4" y="285" font-size="10.5" fill="#6e7781">0.977</text>
<text x="227" y="311" font-size="11.5" fill="#6e7781" text-anchor="end">Qwen3.6-27B (ceiling ref)</text>
<rect x="235" y="300" width="443.8" height="15" rx="2.5" fill="#9ca3af" fill-opacity="0.55"/>
<line x1="640.3" y1="307.5" x2="692.9" y2="307.5" stroke="#6e7781" stroke-width="1.4"/>
<line x1="640.3" y1="303" x2="640.3" y2="312" stroke="#6e7781" stroke-width="1.4"/>
<line x1="692.9" y1="303" x2="692.9" y2="312" stroke="#6e7781" stroke-width="1.4"/>
<text x="726.8" y="311" font-size="10.5" fill="#6e7781">0.955</text>
<text x="227" y="337" font-size="11.5" fill="#6e7781" text-anchor="end">Gemma-3-1B</text>
<rect x="235" y="326" width="10.6" height="15" rx="2.5" fill="#ef4444" fill-opacity="0.9"/>
<text x="253.6" y="337" font-size="10.5" fill="#6e7781">0.02 — never calls tools</text>
<text x="227" y="363" font-size="11.5" fill="#6e7781" text-anchor="end">Hermes-3-3B</text>
<rect x="235" y="352" width="10.6" height="15" rx="2.5" fill="#ef4444" fill-opacity="0.9"/>
<text x="253.6" y="363" font-size="10.5" fill="#6e7781">0.02 — never calls tools</text>
<text x="227" y="389" font-size="11.5" fill="#6e7781" text-anchor="end">Gemma-3-4B</text>
<rect x="235" y="378" width="1.5" height="15" rx="2.5" fill="#ef4444" fill-opacity="0.9"/>
<text x="244.5" y="389" font-size="10.5" fill="#6e7781">0.00 — never calls tools</text>
<text x="227" y="415" font-size="11.5" fill="#6e7781" text-anchor="end">Phi-4-mini</text>
<rect x="235" y="404" width="1.5" height="15" rx="2.5" fill="#ef4444" fill-opacity="0.9"/>
<text x="244.5" y="415" font-size="10.5" fill="#6e7781">0.00 — never calls tools</text>
<text x="227" y="441" font-size="11.5" fill="#6e7781" text-anchor="end">SmolLM3-3B</text>
<rect x="235" y="430" width="1.5" height="15" rx="2.5" fill="#ef4444" fill-opacity="0.9"/>
<text x="244.5" y="441" font-size="10.5" fill="#6e7781">0.00 — never calls tools</text>
</svg>