<svg xmlns="http://www.w3.org/2000/svg" width="760" height="474" font-family="ui-sans-serif,system-ui,sans-serif">
<text x="235" y="24" font-size="15" font-weight="600" fill="#6e7781">Agentic web search — fresh-question correctness (frozen config, dataset v3)</text>
<text x="235" y="42" font-size="11" fill="#8b949e">85 retrieval-required questions · whiskers = Wilson 90% CI · no-tool floor ≈ 0.00–0.02</text>
<line x1="235" y1="56" x2="235" y2="436" stroke="#8b949e" stroke-opacity="0.25" stroke-width="1"/>
<text x="235" y="452" font-size="10" fill="#8b949e" text-anchor="middle">0.00</text>
<line x1="351" y1="56" x2="351" y2="436" stroke="#8b949e" stroke-opacity="0.25" stroke-width="1"/>
<text x="351" y="452" font-size="10" fill="#8b949e" text-anchor="middle">0.25</text>
<line x1="468" y1="56" x2="468" y2="436" stroke="#8b949e" stroke-opacity="0.25" stroke-width="1"/>
<text x="468" y="452" font-size="10" fill="#8b949e" text-anchor="middle">0.50</text>
<line x1="584" y1="56" x2="584" y2="436" stroke="#8b949e" stroke-opacity="0.25" stroke-width="1"/>
<text x="584" y="452" font-size="10" fill="#8b949e" text-anchor="middle">0.75</text>
<line x1="700" y1="56" x2="700" y2="436" stroke="#8b949e" stroke-opacity="0.25" stroke-width="1"/>
<text x="700" y="452" font-size="10" fill="#8b949e" text-anchor="middle">1.00</text>
<text x="227" y="77" font-size="11.5" fill="#6e7781" text-anchor="end">Qwen3.5-4B</text>
<rect x="235" y="66" width="432.2" height="15" rx="2.5" fill="#3b82f6" fill-opacity="0.9"/>
<line x1="639.2" y1="73.5" x2="682.8" y2="73.5" stroke="#6e7781" stroke-width="1.4"/>
<line x1="639.2" y1="69" x2="639.2" y2="78" stroke="#6e7781" stroke-width="1.4"/>
<line x1="682.8" y1="69" x2="682.8" y2="78" stroke="#6e7781" stroke-width="1.4"/>
<text x="715.2" y="77" font-size="10.5" fill="#6e7781">0.929</text>
<text x="227" y="103" font-size="11.5" fill="#6e7781" text-anchor="end">Ministral-3-3B</text>
<rect x="235" y="92" width="382.9" height="15" rx="2.5" fill="#3b82f6" fill-opacity="0.9"/>
<line x1="581.8" y1="99.5" x2="644.8" y2="99.5" stroke="#6e7781" stroke-width="1.4"/>
<line x1="581.8" y1="95" x2="581.8" y2="104" stroke="#6e7781" stroke-width="1.4"/>
<line x1="644.8" y1="95" x2="644.8" y2="104" stroke="#6e7781" stroke-width="1.4"/>
<text x="665.9" y="103" font-size="10.5" fill="#6e7781">0.824</text>
<text x="227" y="129" font-size="11.5" fill="#6e7781" text-anchor="end">Qwen3.5-2B</text>
<rect x="235" y="118" width="333.7" height="15" rx="2.5" fill="#3b82f6" fill-opacity="0.9"/>
<line x1="528.7" y1="125.5" x2="602.5" y2="125.5" stroke="#6e7781" stroke-width="1.4"/>
<line x1="528.7" y1="121" x2="528.7" y2="130" stroke="#6e7781" stroke-width="1.4"/>
<line x1="602.5" y1="121" x2="602.5" y2="130" stroke="#6e7781" stroke-width="1.4"/>
<text x="616.7" y="129" font-size="10.5" fill="#6e7781">0.718</text>
<text x="227" y="155" font-size="11.5" fill="#6e7781" text-anchor="end">LFM2.5-1.2B</text>
<rect x="235" y="144" width="333.7" height="15" rx="2.5" fill="#3b82f6" fill-opacity="0.9"/>
<line x1="528.7" y1="151.5" x2="602.5" y2="151.5" stroke="#6e7781" stroke-width="1.4"/>
<line x1="528.7" y1="147" x2="528.7" y2="156" stroke="#6e7781" stroke-width="1.4"/>
<line x1="602.5" y1="147" x2="602.5" y2="156" stroke="#6e7781" stroke-width="1.4"/>
<text x="616.7" y="155" font-size="10.5" fill="#6e7781">0.718</text>
<text x="227" y="181" font-size="11.5" fill="#6e7781" text-anchor="end">Gemma-4-E2B</text>
<rect x="235" y="170" width="328.2" height="15" rx="2.5" fill="#3b82f6" fill-opacity="0.9"/>
<line x1="522.9" y1="177.5" x2="597.6" y2="177.5" stroke="#6e7781" stroke-width="1.4"/>
<line x1="522.9" y1="173" x2="522.9" y2="182" stroke="#6e7781" stroke-width="1.4"/>
<line x1="597.6" y1="173" x2="597.6" y2="182" stroke="#6e7781" stroke-width="1.4"/>
<text x="611.2" y="181" font-size="10.5" fill="#6e7781">0.706</text>
<text x="227" y="207" font-size="11.5" fill="#6e7781" text-anchor="end">Qwen3-0.6B</text>
<rect x="235" y="196" width="279.0" height="15" rx="2.5" fill="#3b82f6" fill-opacity="0.9"/>
<line x1="472.5" y1="203.5" x2="552.6" y2="203.5" stroke="#6e7781" stroke-width="1.4"/>
<line x1="472.5" y1="199" x2="472.5" y2="208" stroke="#6e7781" stroke-width="1.4"/>
<line x1="552.6" y1="199" x2="552.6" y2="208" stroke="#6e7781" stroke-width="1.4"/>
<text x="562.0" y="207" font-size="10.5" fill="#6e7781">0.600</text>
<text x="227" y="233" font-size="11.5" fill="#6e7781" text-anchor="end">Qwen3-1.7B</text>
<rect x="235" y="222" width="279.0" height="15" rx="2.5" fill="#3b82f6" fill-opacity="0.9"/>
<line x1="472.5" y1="229.5" x2="552.6" y2="229.5" stroke="#6e7781" stroke-width="1.4"/>
<line x1="472.5" y1="225" x2="472.5" y2="234" stroke="#6e7781" stroke-width="1.4"/>
<line x1="552.6" y1="225" x2="552.6" y2="234" stroke="#6e7781" stroke-width="1.4"/>
<text x="562.0" y="233" font-size="10.5" fill="#6e7781">0.600</text>
<text x="227" y="259" font-size="11.5" fill="#6e7781" text-anchor="end">Claude Sonnet 5 (frontier anchor)</text>
<rect x="235" y="248" width="454.1" height="15" rx="2.5" fill="#9ca3af" fill-opacity="0.55"/>
<line x1="668.1" y1="255.5" x2="696.4" y2="255.5" stroke="#6e7781" stroke-width="1.4"/>
<line x1="668.1" y1="251" x2="668.1" y2="260" stroke="#6e7781" stroke-width="1.4"/>
<line x1="696.4" y1="251" x2="696.4" y2="260" stroke="#6e7781" stroke-width="1.4"/>
<text x="737.1" y="259" font-size="10.5" fill="#6e7781">0.977</text>
<text x="227" y="285" font-size="11.5" fill="#6e7781" text-anchor="end">GPT-5.6-sol (frontier anchor)</text>
<rect x="235" y="274" width="454.1" height="15" rx="2.5" fill="#9ca3af" fill-opacity="0.55"/>
<line x1="668.1" y1="281.5" x2="696.4" y2="281.5" stroke="#6e7781" stroke-width="1.4"/>
<line x1="668.1" y1="277" x2="668.1" y2="286" stroke="#6e7781" stroke-width="1.4"/>
<line x1="696.4" y1="277" x2="696.4" y2="286" stroke="#6e7781" stroke-width="1.4"/>
<text x="737.1" y="285" font-size="10.5" fill="#6e7781">0.977</text>
<text x="227" y="311" font-size="11.5" fill="#6e7781" text-anchor="end">Gemma-3-1B</text>
<rect x="235" y="300" width="27.3" height="15" rx="2.5" fill="#ef4444" fill-opacity="0.9"/>
<text x="270.3" y="311" font-size="10.5" fill="#6e7781">0.06 — never calls tools</text>
<text x="227" y="337" font-size="11.5" fill="#6e7781" text-anchor="end">SmolLM3-3B</text>
<rect x="235" y="326" width="21.9" height="15" rx="2.5" fill="#ef4444" fill-opacity="0.9"/>
<text x="264.9" y="337" font-size="10.5" fill="#6e7781">0.05 — never calls tools</text>
<text x="227" y="363" font-size="11.5" fill="#6e7781" text-anchor="end">Hermes-3-3B</text>
<rect x="235" y="352" width="16.4" height="15" rx="2.5" fill="#ef4444" fill-opacity="0.9"/>
<text x="259.4" y="363" font-size="10.5" fill="#6e7781">0.04 — never calls tools</text>
<text x="227" y="389" font-size="11.5" fill="#6e7781" text-anchor="end">Phi-4-mini</text>
<rect x="235" y="378" width="10.9" height="15" rx="2.5" fill="#ef4444" fill-opacity="0.9"/>
<text x="253.9" y="389" font-size="10.5" fill="#6e7781">0.02 — never calls tools</text>
<text x="227" y="415" font-size="11.5" fill="#6e7781" text-anchor="end">Gemma-3-4B</text>
<rect x="235" y="404" width="5.5" height="15" rx="2.5" fill="#ef4444" fill-opacity="0.9"/>
<text x="248.5" y="415" font-size="10.5" fill="#6e7781">0.01 — never calls tools</text>
</svg>